<?xml version="1.0" encoding="UTF-8" standalone="no"?>
<!DOCTYPE svg PUBLIC "-//W3C//DTD SVG 1.1//EN" "http://www.w3.org/Graphics/SVG/1.1/DTD/svg11.dtd">
<svg width="100%" height="100%" viewBox="0 0 139 68" version="1.1" xmlns="http://www.w3.org/2000/svg" xmlns:xlink="http://www.w3.org/1999/xlink" xml:space="preserve" xmlns:serif="http://www.serif.com/" style="fill-rule:evenodd;clip-rule:evenodd;stroke-linejoin:round;stroke-miterlimit:2;">
    <g transform="matrix(1,0,0,1,-1064.71,-354.706)">
        <g transform="matrix(2.84081,0,0,2.62588,-911.434,-400.005)">
            <g transform="matrix(0.18771,0,0,0.203074,664.644,263.706)">
                <g transform="matrix(3.73422,0,0,3.73422,-459.015,-325.273)">
                    <text x="179.537px" y="127.104px" style="font-family:'ArialRoundedMTBold', 'Arial Rounded MT Bold', sans-serif;font-size:12px;fill:rgb(212,162,70);">s<tspan x="186.281px 193.651px 201.022px 208.51px 215.998px " y="127.104px 127.104px 127.104px 127.104px 127.104px ">econd</tspan></text>
                </g>
                <g transform="matrix(3.73422,0,0,3.73422,-498.886,-409.213)">
                    <text x="189.915px" y="161.205px" style="font-family:'ArialRoundedMTBold', 'Arial Rounded MT Bold', sans-serif;font-size:12px;fill:rgb(212,162,70);">b<tspan x="197.655px 202.852px 210.223px 217.594px 224.713px 228.791px 236.161px 242.905px " y="161.205px 161.205px 161.205px 161.205px 161.205px 161.205px 161.205px 161.205px ">reakfast</tspan></text>
                </g>
                <g transform="matrix(5.77936,0,0,5.77936,-852.799,-777.205)">
                    <path d="M181.691,156.82L181.354,156.268C178.103,158.251 176.12,161.784 176.12,165.592C176.12,171.619 181.013,176.512 187.04,176.512L187.13,176.512C190.903,176.481 194.397,174.503 196.364,171.277L195.812,170.941C193.962,173.976 190.675,175.837 187.124,175.866L187.04,175.866C181.37,175.866 176.766,171.262 176.766,165.592C176.766,162.009 178.632,158.685 181.691,156.82Z" style="fill:rgb(142,88,14);"/>
                </g>
            </g>
        </g>
    </g>
</svg>
